<mxfile host="app.diagrams.net" agent="Mozilla/5.0 (Windows NT 10.0; Win64; x64) AppleWebKit/537.36 (KHTML, like Gecko) Chrome/132.0.0.0 Safari/537.36" version="26.0.14" pages="4">
  <diagram name="Página-1" id="TaI11Co3SjsQFdDWkw0S">
    <mxGraphModel dx="1050" dy="574" grid="1" gridSize="10" guides="1" tooltips="1" connect="1" arrows="1" fold="1" page="1" pageScale="1" pageWidth="827" pageHeight="1169" math="0" shadow="0">
      <root>
        <mxCell id="0" />
        <mxCell id="1" parent="0" />
        <mxCell id="RQAkhsI0-Qx0IGG4ApZQ-5" style="edgeStyle=orthogonalEdgeStyle;rounded=0;orthogonalLoop=1;jettySize=auto;html=1;exitX=0.5;exitY=1;exitDx=0;exitDy=0;" edge="1" parent="1" source="RQAkhsI0-Qx0IGG4ApZQ-1" target="RQAkhsI0-Qx0IGG4ApZQ-2">
          <mxGeometry relative="1" as="geometry">
            <Array as="points" />
          </mxGeometry>
        </mxCell>
        <mxCell id="RQAkhsI0-Qx0IGG4ApZQ-1" value="início" style="ellipse;whiteSpace=wrap;html=1;fillColor=#d5e8d4;strokeColor=#82b366;" vertex="1" parent="1">
          <mxGeometry x="220" y="100" width="120" height="80" as="geometry" />
        </mxCell>
        <mxCell id="RQAkhsI0-Qx0IGG4ApZQ-4" style="edgeStyle=orthogonalEdgeStyle;rounded=0;orthogonalLoop=1;jettySize=auto;html=1;exitX=0.5;exitY=1;exitDx=0;exitDy=0;entryX=0.5;entryY=0;entryDx=0;entryDy=0;" edge="1" parent="1" source="RQAkhsI0-Qx0IGG4ApZQ-2" target="RQAkhsI0-Qx0IGG4ApZQ-3">
          <mxGeometry relative="1" as="geometry" />
        </mxCell>
        <mxCell id="RQAkhsI0-Qx0IGG4ApZQ-6" style="edgeStyle=orthogonalEdgeStyle;rounded=0;orthogonalLoop=1;jettySize=auto;html=1;" edge="1" parent="1" source="RQAkhsI0-Qx0IGG4ApZQ-2" target="RQAkhsI0-Qx0IGG4ApZQ-3">
          <mxGeometry relative="1" as="geometry" />
        </mxCell>
        <mxCell id="RQAkhsI0-Qx0IGG4ApZQ-2" value="Recebe o 1° numero" style="shape=parallelogram;html=1;strokeWidth=2;perimeter=parallelogramPerimeter;whiteSpace=wrap;rounded=1;arcSize=12;size=0.23;fillColor=#ffe6cc;strokeColor=#d79b00;" vertex="1" parent="1">
          <mxGeometry x="230" y="200" width="100" height="60" as="geometry" />
        </mxCell>
        <mxCell id="RQAkhsI0-Qx0IGG4ApZQ-8" style="edgeStyle=orthogonalEdgeStyle;rounded=0;orthogonalLoop=1;jettySize=auto;html=1;exitX=0.5;exitY=1;exitDx=0;exitDy=0;entryX=0.5;entryY=0;entryDx=0;entryDy=0;" edge="1" parent="1" source="RQAkhsI0-Qx0IGG4ApZQ-3" target="RQAkhsI0-Qx0IGG4ApZQ-7">
          <mxGeometry relative="1" as="geometry" />
        </mxCell>
        <mxCell id="RQAkhsI0-Qx0IGG4ApZQ-3" value="Recebe o 2° numero" style="shape=parallelogram;html=1;strokeWidth=2;perimeter=parallelogramPerimeter;whiteSpace=wrap;rounded=1;arcSize=12;size=0.23;fillColor=#ffe6cc;strokeColor=#d79b00;" vertex="1" parent="1">
          <mxGeometry x="230" y="290" width="100" height="60" as="geometry" />
        </mxCell>
        <mxCell id="RQAkhsI0-Qx0IGG4ApZQ-7" value="Realizar soma dos n° obtidos" style="rounded=1;whiteSpace=wrap;html=1;absoluteArcSize=1;arcSize=14;strokeWidth=2;fillColor=#dae8fc;strokeColor=#6c8ebf;" vertex="1" parent="1">
          <mxGeometry x="230" y="380" width="100" height="50" as="geometry" />
        </mxCell>
        <mxCell id="RQAkhsI0-Qx0IGG4ApZQ-12" style="edgeStyle=orthogonalEdgeStyle;rounded=0;orthogonalLoop=1;jettySize=auto;html=1;exitX=0.5;exitY=1;exitDx=0;exitDy=0;exitPerimeter=0;" edge="1" parent="1" source="RQAkhsI0-Qx0IGG4ApZQ-9" target="RQAkhsI0-Qx0IGG4ApZQ-11">
          <mxGeometry relative="1" as="geometry" />
        </mxCell>
        <mxCell id="RQAkhsI0-Qx0IGG4ApZQ-9" value="Exibe o resultado da soma" style="strokeWidth=2;html=1;shape=mxgraph.flowchart.display;whiteSpace=wrap;fillColor=#ffe6cc;strokeColor=#d79b00;" vertex="1" parent="1">
          <mxGeometry x="230" y="470" width="100" height="60" as="geometry" />
        </mxCell>
        <mxCell id="RQAkhsI0-Qx0IGG4ApZQ-10" style="edgeStyle=orthogonalEdgeStyle;rounded=0;orthogonalLoop=1;jettySize=auto;html=1;exitX=0.5;exitY=1;exitDx=0;exitDy=0;entryX=0.5;entryY=0;entryDx=0;entryDy=0;entryPerimeter=0;" edge="1" parent="1" source="RQAkhsI0-Qx0IGG4ApZQ-7" target="RQAkhsI0-Qx0IGG4ApZQ-9">
          <mxGeometry relative="1" as="geometry" />
        </mxCell>
        <mxCell id="RQAkhsI0-Qx0IGG4ApZQ-11" value="Fim" style="strokeWidth=2;html=1;shape=mxgraph.flowchart.start_1;whiteSpace=wrap;fillColor=#f8cecc;strokeColor=#b85450;" vertex="1" parent="1">
          <mxGeometry x="220" y="560" width="120" height="60" as="geometry" />
        </mxCell>
      </root>
    </mxGraphModel>
  </diagram>
  <diagram id="i2djb1S3AocI9PZ9tpR0" name="Página-2">
    <mxGraphModel dx="1050" dy="574" grid="1" gridSize="10" guides="1" tooltips="1" connect="1" arrows="1" fold="1" page="1" pageScale="1" pageWidth="827" pageHeight="1169" math="0" shadow="0">
      <root>
        <mxCell id="0" />
        <mxCell id="1" parent="0" />
        <mxCell id="5oAMcG4v_PDFgeQik5Qv-3" style="edgeStyle=orthogonalEdgeStyle;rounded=0;orthogonalLoop=1;jettySize=auto;html=1;exitX=0.5;exitY=1;exitDx=0;exitDy=0;exitPerimeter=0;entryX=0.5;entryY=0;entryDx=0;entryDy=0;" edge="1" parent="1" source="QSSfYTuP0AgkWYYQqviw-1" target="5oAMcG4v_PDFgeQik5Qv-1">
          <mxGeometry relative="1" as="geometry" />
        </mxCell>
        <mxCell id="QSSfYTuP0AgkWYYQqviw-1" value="Início" style="strokeWidth=2;html=1;shape=mxgraph.flowchart.start_1;whiteSpace=wrap;fillColor=#d5e8d4;strokeColor=#82b366;" vertex="1" parent="1">
          <mxGeometry x="364" y="150" width="100" height="60" as="geometry" />
        </mxCell>
        <mxCell id="5oAMcG4v_PDFgeQik5Qv-4" value="" style="edgeStyle=orthogonalEdgeStyle;rounded=0;orthogonalLoop=1;jettySize=auto;html=1;" edge="1" parent="1" source="5oAMcG4v_PDFgeQik5Qv-1" target="5oAMcG4v_PDFgeQik5Qv-2">
          <mxGeometry relative="1" as="geometry" />
        </mxCell>
        <mxCell id="5oAMcG4v_PDFgeQik5Qv-1" value="Obtenha a base" style="shape=parallelogram;html=1;strokeWidth=2;perimeter=parallelogramPerimeter;whiteSpace=wrap;rounded=1;arcSize=12;size=0.23;fillColor=#ffe6cc;strokeColor=#d79b00;" vertex="1" parent="1">
          <mxGeometry x="364" y="250" width="106" height="70" as="geometry" />
        </mxCell>
        <mxCell id="1Sdaf6b2tYfZoiBSpnTJ-1" value="" style="edgeStyle=orthogonalEdgeStyle;rounded=0;orthogonalLoop=1;jettySize=auto;html=1;" edge="1" parent="1" source="5oAMcG4v_PDFgeQik5Qv-2" target="m7vCpeLMC_COT6AnyUTQ-1">
          <mxGeometry relative="1" as="geometry" />
        </mxCell>
        <mxCell id="5oAMcG4v_PDFgeQik5Qv-2" value="Obtenha a altura" style="shape=parallelogram;html=1;strokeWidth=2;perimeter=parallelogramPerimeter;whiteSpace=wrap;rounded=1;arcSize=12;size=0.23;fillColor=#ffe6cc;strokeColor=#d79b00;" vertex="1" parent="1">
          <mxGeometry x="361" y="370" width="106" height="70" as="geometry" />
        </mxCell>
        <mxCell id="QVKHc5tfvNcm84nUr_KZ-2" value="" style="edgeStyle=orthogonalEdgeStyle;rounded=0;orthogonalLoop=1;jettySize=auto;html=1;" edge="1" parent="1" source="m7vCpeLMC_COT6AnyUTQ-1" target="QVKHc5tfvNcm84nUr_KZ-1">
          <mxGeometry relative="1" as="geometry" />
        </mxCell>
        <mxCell id="m7vCpeLMC_COT6AnyUTQ-1" value="Realizar os calculos" style="rounded=1;whiteSpace=wrap;html=1;absoluteArcSize=1;arcSize=14;strokeWidth=2;fillColor=#dae8fc;strokeColor=#6c8ebf;" vertex="1" parent="1">
          <mxGeometry x="364" y="480" width="100" height="50" as="geometry" />
        </mxCell>
        <mxCell id="Ma89ftJIJutscbflMlO6-2" value="" style="edgeStyle=orthogonalEdgeStyle;rounded=0;orthogonalLoop=1;jettySize=auto;html=1;" edge="1" parent="1" source="QVKHc5tfvNcm84nUr_KZ-1" target="Ma89ftJIJutscbflMlO6-1">
          <mxGeometry relative="1" as="geometry" />
        </mxCell>
        <mxCell id="QVKHc5tfvNcm84nUr_KZ-1" value="exiba o resultado" style="strokeWidth=2;html=1;shape=mxgraph.flowchart.display;whiteSpace=wrap;fillColor=#ffe6cc;strokeColor=#d79b00;" vertex="1" parent="1">
          <mxGeometry x="364" y="560" width="100" height="60" as="geometry" />
        </mxCell>
        <mxCell id="Ma89ftJIJutscbflMlO6-1" value="Fim" style="strokeWidth=2;html=1;shape=mxgraph.flowchart.start_1;whiteSpace=wrap;fillColor=#f8cecc;strokeColor=#b85450;" vertex="1" parent="1">
          <mxGeometry x="364" y="650" width="100" height="60" as="geometry" />
        </mxCell>
      </root>
    </mxGraphModel>
  </diagram>
  <diagram id="E2kLCmXmbOT1ZnlEsWfg" name="Página-3">
    <mxGraphModel dx="1050" dy="574" grid="1" gridSize="10" guides="1" tooltips="1" connect="1" arrows="1" fold="1" page="1" pageScale="1" pageWidth="827" pageHeight="1169" math="0" shadow="0">
      <root>
        <mxCell id="0" />
        <mxCell id="1" parent="0" />
        <mxCell id="UoujrgN7sC0ODliCeehT-1" style="edgeStyle=orthogonalEdgeStyle;rounded=0;orthogonalLoop=1;jettySize=auto;html=1;exitX=0.5;exitY=1;exitDx=0;exitDy=0;" edge="1" parent="1" source="UoujrgN7sC0ODliCeehT-2" target="UoujrgN7sC0ODliCeehT-5">
          <mxGeometry relative="1" as="geometry">
            <Array as="points" />
          </mxGeometry>
        </mxCell>
        <mxCell id="UoujrgN7sC0ODliCeehT-2" value="início" style="ellipse;whiteSpace=wrap;html=1;fillColor=#d5e8d4;strokeColor=#82b366;" vertex="1" parent="1">
          <mxGeometry x="370" y="60" width="120" height="80" as="geometry" />
        </mxCell>
        <mxCell id="UoujrgN7sC0ODliCeehT-4" style="edgeStyle=orthogonalEdgeStyle;rounded=0;orthogonalLoop=1;jettySize=auto;html=1;entryX=0.5;entryY=0;entryDx=0;entryDy=0;" edge="1" parent="1" source="UoujrgN7sC0ODliCeehT-5" target="UoujrgN7sC0ODliCeehT-13">
          <mxGeometry relative="1" as="geometry">
            <mxPoint x="430" y="250" as="targetPoint" />
          </mxGeometry>
        </mxCell>
        <mxCell id="UoujrgN7sC0ODliCeehT-5" value="obtenha um numero" style="shape=parallelogram;html=1;strokeWidth=2;perimeter=parallelogramPerimeter;whiteSpace=wrap;rounded=1;arcSize=12;size=0.23;fillColor=#ffe6cc;strokeColor=#d79b00;" vertex="1" parent="1">
          <mxGeometry x="380" y="160" width="100" height="60" as="geometry" />
        </mxCell>
        <mxCell id="UoujrgN7sC0ODliCeehT-17" value="" style="edgeStyle=orthogonalEdgeStyle;rounded=0;orthogonalLoop=1;jettySize=auto;html=1;" edge="1" parent="1" source="UoujrgN7sC0ODliCeehT-13" target="UoujrgN7sC0ODliCeehT-16">
          <mxGeometry relative="1" as="geometry" />
        </mxCell>
        <mxCell id="UoujrgN7sC0ODliCeehT-13" value="calcule o dobro" style="rounded=1;whiteSpace=wrap;html=1;absoluteArcSize=1;arcSize=14;strokeWidth=2;fillColor=#dae8fc;strokeColor=#6c8ebf;" vertex="1" parent="1">
          <mxGeometry x="380" y="270" width="100" height="50" as="geometry" />
        </mxCell>
        <mxCell id="UoujrgN7sC0ODliCeehT-19" style="edgeStyle=orthogonalEdgeStyle;rounded=0;orthogonalLoop=1;jettySize=auto;html=1;" edge="1" parent="1" source="UoujrgN7sC0ODliCeehT-16" target="UoujrgN7sC0ODliCeehT-18">
          <mxGeometry relative="1" as="geometry" />
        </mxCell>
        <mxCell id="UoujrgN7sC0ODliCeehT-16" value="calcule a metade do numero" style="rounded=1;whiteSpace=wrap;html=1;absoluteArcSize=1;arcSize=14;strokeWidth=2;fillColor=#dae8fc;strokeColor=#6c8ebf;" vertex="1" parent="1">
          <mxGeometry x="380" y="350" width="100" height="50" as="geometry" />
        </mxCell>
        <mxCell id="UoujrgN7sC0ODliCeehT-21" value="" style="edgeStyle=orthogonalEdgeStyle;rounded=0;orthogonalLoop=1;jettySize=auto;html=1;" edge="1" parent="1" source="UoujrgN7sC0ODliCeehT-18" target="UoujrgN7sC0ODliCeehT-20">
          <mxGeometry relative="1" as="geometry" />
        </mxCell>
        <mxCell id="UoujrgN7sC0ODliCeehT-18" value="exiba o dobro" style="strokeWidth=2;html=1;shape=mxgraph.flowchart.display;whiteSpace=wrap;fillColor=#fff2cc;strokeColor=#d6b656;" vertex="1" parent="1">
          <mxGeometry x="380" y="450" width="100" height="60" as="geometry" />
        </mxCell>
        <mxCell id="UoujrgN7sC0ODliCeehT-24" value="" style="edgeStyle=orthogonalEdgeStyle;rounded=0;orthogonalLoop=1;jettySize=auto;html=1;" edge="1" parent="1" source="UoujrgN7sC0ODliCeehT-20" target="UoujrgN7sC0ODliCeehT-23">
          <mxGeometry relative="1" as="geometry" />
        </mxCell>
        <mxCell id="UoujrgN7sC0ODliCeehT-20" value="exiba a metade" style="strokeWidth=2;html=1;shape=mxgraph.flowchart.display;whiteSpace=wrap;fillColor=#fff2cc;strokeColor=#d6b656;" vertex="1" parent="1">
          <mxGeometry x="380" y="540" width="100" height="60" as="geometry" />
        </mxCell>
        <mxCell id="UoujrgN7sC0ODliCeehT-22" style="edgeStyle=orthogonalEdgeStyle;rounded=0;orthogonalLoop=1;jettySize=auto;html=1;exitX=0.5;exitY=0;exitDx=0;exitDy=0;entryX=0.5;entryY=0.2;entryDx=0;entryDy=0;entryPerimeter=0;fillColor=#dae8fc;strokeColor=#6c8ebf;" edge="1" parent="1" source="UoujrgN7sC0ODliCeehT-13" target="UoujrgN7sC0ODliCeehT-13">
          <mxGeometry relative="1" as="geometry" />
        </mxCell>
        <mxCell id="UoujrgN7sC0ODliCeehT-23" value="Fim" style="ellipse;whiteSpace=wrap;html=1;fillColor=#f8cecc;strokeColor=#b85450;" vertex="1" parent="1">
          <mxGeometry x="370" y="630" width="120" height="80" as="geometry" />
        </mxCell>
      </root>
    </mxGraphModel>
  </diagram>
  <diagram id="FGykX1fN9atnAUArxkq_" name="Página-4">
    <mxGraphModel dx="1050" dy="574" grid="1" gridSize="10" guides="1" tooltips="1" connect="1" arrows="1" fold="1" page="1" pageScale="1" pageWidth="827" pageHeight="1169" math="0" shadow="0">
      <root>
        <mxCell id="0" />
        <mxCell id="1" parent="0" />
        <mxCell id="adwvZwYp6TvHB-TOPoHW-1" style="edgeStyle=orthogonalEdgeStyle;rounded=0;orthogonalLoop=1;jettySize=auto;html=1;exitX=0.5;exitY=1;exitDx=0;exitDy=0;" edge="1" parent="1" source="adwvZwYp6TvHB-TOPoHW-2" target="adwvZwYp6TvHB-TOPoHW-5">
          <mxGeometry relative="1" as="geometry">
            <Array as="points" />
          </mxGeometry>
        </mxCell>
        <mxCell id="adwvZwYp6TvHB-TOPoHW-2" value="início" style="ellipse;whiteSpace=wrap;html=1;fillColor=#d5e8d4;strokeColor=#82b366;" vertex="1" parent="1">
          <mxGeometry x="220" y="100" width="120" height="80" as="geometry" />
        </mxCell>
        <mxCell id="adwvZwYp6TvHB-TOPoHW-16" value="" style="edgeStyle=orthogonalEdgeStyle;rounded=0;orthogonalLoop=1;jettySize=auto;html=1;" edge="1" parent="1" source="adwvZwYp6TvHB-TOPoHW-5" target="adwvZwYp6TvHB-TOPoHW-14">
          <mxGeometry relative="1" as="geometry" />
        </mxCell>
        <mxCell id="adwvZwYp6TvHB-TOPoHW-5" value="Recebe o 1° numero" style="shape=parallelogram;html=1;strokeWidth=2;perimeter=parallelogramPerimeter;whiteSpace=wrap;rounded=1;arcSize=12;size=0.23;fillColor=#ffe6cc;strokeColor=#d79b00;" vertex="1" parent="1">
          <mxGeometry x="230" y="200" width="100" height="60" as="geometry" />
        </mxCell>
        <mxCell id="adwvZwYp6TvHB-TOPoHW-12" value="Fim" style="strokeWidth=2;html=1;shape=mxgraph.flowchart.start_1;whiteSpace=wrap;fillColor=#f8cecc;strokeColor=#b85450;" vertex="1" parent="1">
          <mxGeometry x="220" y="530" width="120" height="60" as="geometry" />
        </mxCell>
        <mxCell id="adwvZwYp6TvHB-TOPoHW-14" value="o numero é impar?" style="strokeWidth=2;html=1;shape=mxgraph.flowchart.decision;whiteSpace=wrap;fillColor=#e1d5e7;strokeColor=#9673a6;" vertex="1" parent="1">
          <mxGeometry x="230" y="310" width="100" height="100" as="geometry" />
        </mxCell>
        <mxCell id="adwvZwYp6TvHB-TOPoHW-27" value="o numero é impar" style="strokeWidth=2;html=1;shape=mxgraph.flowchart.display;whiteSpace=wrap;fillColor=#6a00ff;fontColor=#ffffff;strokeColor=#3700CC;" vertex="1" parent="1">
          <mxGeometry x="100" y="430" width="100" height="60" as="geometry" />
        </mxCell>
        <mxCell id="adwvZwYp6TvHB-TOPoHW-28" value="o numero é par" style="strokeWidth=2;html=1;shape=mxgraph.flowchart.display;whiteSpace=wrap;fillColor=#6a00ff;fontColor=#ffffff;strokeColor=#3700CC;" vertex="1" parent="1">
          <mxGeometry x="390" y="430" width="100" height="60" as="geometry" />
        </mxCell>
        <mxCell id="adwvZwYp6TvHB-TOPoHW-29" style="edgeStyle=orthogonalEdgeStyle;rounded=0;orthogonalLoop=1;jettySize=auto;html=1;exitX=1;exitY=0.5;exitDx=0;exitDy=0;exitPerimeter=0;entryX=0.5;entryY=0;entryDx=0;entryDy=0;entryPerimeter=0;" edge="1" parent="1" source="adwvZwYp6TvHB-TOPoHW-14" target="adwvZwYp6TvHB-TOPoHW-28">
          <mxGeometry relative="1" as="geometry">
            <mxPoint x="430" y="420" as="targetPoint" />
          </mxGeometry>
        </mxCell>
        <mxCell id="adwvZwYp6TvHB-TOPoHW-30" style="edgeStyle=orthogonalEdgeStyle;rounded=0;orthogonalLoop=1;jettySize=auto;html=1;exitX=0;exitY=0.5;exitDx=0;exitDy=0;exitPerimeter=0;entryX=0.5;entryY=0;entryDx=0;entryDy=0;entryPerimeter=0;" edge="1" parent="1" source="adwvZwYp6TvHB-TOPoHW-14" target="adwvZwYp6TvHB-TOPoHW-27">
          <mxGeometry relative="1" as="geometry" />
        </mxCell>
        <mxCell id="adwvZwYp6TvHB-TOPoHW-32" style="edgeStyle=orthogonalEdgeStyle;rounded=0;orthogonalLoop=1;jettySize=auto;html=1;exitX=0.5;exitY=1;exitDx=0;exitDy=0;exitPerimeter=0;entryX=0;entryY=0.5;entryDx=0;entryDy=0;entryPerimeter=0;" edge="1" parent="1" source="adwvZwYp6TvHB-TOPoHW-27" target="adwvZwYp6TvHB-TOPoHW-12">
          <mxGeometry relative="1" as="geometry" />
        </mxCell>
        <mxCell id="adwvZwYp6TvHB-TOPoHW-33" style="edgeStyle=orthogonalEdgeStyle;rounded=0;orthogonalLoop=1;jettySize=auto;html=1;exitX=0.5;exitY=1;exitDx=0;exitDy=0;exitPerimeter=0;entryX=1;entryY=0.5;entryDx=0;entryDy=0;entryPerimeter=0;" edge="1" parent="1" source="adwvZwYp6TvHB-TOPoHW-28" target="adwvZwYp6TvHB-TOPoHW-12">
          <mxGeometry relative="1" as="geometry" />
        </mxCell>
        <mxCell id="adwvZwYp6TvHB-TOPoHW-34" style="edgeStyle=orthogonalEdgeStyle;rounded=0;orthogonalLoop=1;jettySize=auto;html=1;exitX=0.5;exitY=1;exitDx=0;exitDy=0;" edge="1" source="adwvZwYp6TvHB-TOPoHW-35" target="adwvZwYp6TvHB-TOPoHW-37" parent="1">
          <mxGeometry relative="1" as="geometry">
            <Array as="points" />
          </mxGeometry>
        </mxCell>
        <mxCell id="adwvZwYp6TvHB-TOPoHW-35" value="início" style="ellipse;whiteSpace=wrap;html=1;fillColor=#d5e8d4;strokeColor=#82b366;" vertex="1" parent="1">
          <mxGeometry x="620" y="100" width="120" height="80" as="geometry" />
        </mxCell>
        <mxCell id="adwvZwYp6TvHB-TOPoHW-36" value="" style="edgeStyle=orthogonalEdgeStyle;rounded=0;orthogonalLoop=1;jettySize=auto;html=1;" edge="1" source="adwvZwYp6TvHB-TOPoHW-37" target="adwvZwYp6TvHB-TOPoHW-39" parent="1">
          <mxGeometry relative="1" as="geometry" />
        </mxCell>
        <mxCell id="adwvZwYp6TvHB-TOPoHW-37" value="Obter a idade da pessoa" style="shape=parallelogram;html=1;strokeWidth=2;perimeter=parallelogramPerimeter;whiteSpace=wrap;rounded=1;arcSize=12;size=0.23;fillColor=#ffe6cc;strokeColor=#d79b00;" vertex="1" parent="1">
          <mxGeometry x="630" y="200" width="100" height="60" as="geometry" />
        </mxCell>
        <mxCell id="adwvZwYp6TvHB-TOPoHW-38" value="Fim" style="strokeWidth=2;html=1;shape=mxgraph.flowchart.start_1;whiteSpace=wrap;fillColor=#f8cecc;strokeColor=#b85450;" vertex="1" parent="1">
          <mxGeometry x="620" y="530" width="120" height="60" as="geometry" />
        </mxCell>
        <mxCell id="adwvZwYp6TvHB-TOPoHW-39" value="A idade é &amp;gt;=18?" style="strokeWidth=2;html=1;shape=mxgraph.flowchart.decision;whiteSpace=wrap;fillColor=#e1d5e7;strokeColor=#9673a6;" vertex="1" parent="1">
          <mxGeometry x="630" y="310" width="100" height="100" as="geometry" />
        </mxCell>
        <mxCell id="adwvZwYp6TvHB-TOPoHW-40" value="ainda não pode dirigir" style="strokeWidth=2;html=1;shape=mxgraph.flowchart.display;whiteSpace=wrap;fillColor=#6a00ff;fontColor=#ffffff;strokeColor=#3700CC;" vertex="1" parent="1">
          <mxGeometry x="500" y="430" width="100" height="60" as="geometry" />
        </mxCell>
        <mxCell id="adwvZwYp6TvHB-TOPoHW-41" value="pode dirigir" style="strokeWidth=2;html=1;shape=mxgraph.flowchart.display;whiteSpace=wrap;fillColor=#6a00ff;fontColor=#ffffff;strokeColor=#3700CC;" vertex="1" parent="1">
          <mxGeometry x="790" y="430" width="100" height="60" as="geometry" />
        </mxCell>
        <mxCell id="adwvZwYp6TvHB-TOPoHW-42" style="edgeStyle=orthogonalEdgeStyle;rounded=0;orthogonalLoop=1;jettySize=auto;html=1;exitX=1;exitY=0.5;exitDx=0;exitDy=0;exitPerimeter=0;entryX=0.5;entryY=0;entryDx=0;entryDy=0;entryPerimeter=0;" edge="1" source="adwvZwYp6TvHB-TOPoHW-39" target="adwvZwYp6TvHB-TOPoHW-41" parent="1">
          <mxGeometry relative="1" as="geometry">
            <mxPoint x="830" y="420" as="targetPoint" />
          </mxGeometry>
        </mxCell>
        <mxCell id="adwvZwYp6TvHB-TOPoHW-43" style="edgeStyle=orthogonalEdgeStyle;rounded=0;orthogonalLoop=1;jettySize=auto;html=1;exitX=0;exitY=0.5;exitDx=0;exitDy=0;exitPerimeter=0;entryX=0.5;entryY=0;entryDx=0;entryDy=0;entryPerimeter=0;" edge="1" source="adwvZwYp6TvHB-TOPoHW-39" target="adwvZwYp6TvHB-TOPoHW-40" parent="1">
          <mxGeometry relative="1" as="geometry" />
        </mxCell>
        <mxCell id="adwvZwYp6TvHB-TOPoHW-44" style="edgeStyle=orthogonalEdgeStyle;rounded=0;orthogonalLoop=1;jettySize=auto;html=1;exitX=0.5;exitY=1;exitDx=0;exitDy=0;exitPerimeter=0;entryX=0;entryY=0.5;entryDx=0;entryDy=0;entryPerimeter=0;" edge="1" source="adwvZwYp6TvHB-TOPoHW-40" target="adwvZwYp6TvHB-TOPoHW-38" parent="1">
          <mxGeometry relative="1" as="geometry" />
        </mxCell>
        <mxCell id="adwvZwYp6TvHB-TOPoHW-45" style="edgeStyle=orthogonalEdgeStyle;rounded=0;orthogonalLoop=1;jettySize=auto;html=1;exitX=0.5;exitY=1;exitDx=0;exitDy=0;exitPerimeter=0;entryX=1;entryY=0.5;entryDx=0;entryDy=0;entryPerimeter=0;" edge="1" source="adwvZwYp6TvHB-TOPoHW-41" target="adwvZwYp6TvHB-TOPoHW-38" parent="1">
          <mxGeometry relative="1" as="geometry" />
        </mxCell>
        <mxCell id="adwvZwYp6TvHB-TOPoHW-46" style="edgeStyle=orthogonalEdgeStyle;rounded=0;orthogonalLoop=1;jettySize=auto;html=1;exitX=0.5;exitY=1;exitDx=0;exitDy=0;" edge="1" source="adwvZwYp6TvHB-TOPoHW-47" target="adwvZwYp6TvHB-TOPoHW-49" parent="1">
          <mxGeometry relative="1" as="geometry">
            <Array as="points" />
          </mxGeometry>
        </mxCell>
        <mxCell id="adwvZwYp6TvHB-TOPoHW-47" value="início" style="ellipse;whiteSpace=wrap;html=1;fillColor=#d5e8d4;strokeColor=#82b366;" vertex="1" parent="1">
          <mxGeometry x="1240" y="80" width="120" height="80" as="geometry" />
        </mxCell>
        <mxCell id="adwvZwYp6TvHB-TOPoHW-48" value="" style="edgeStyle=orthogonalEdgeStyle;rounded=0;orthogonalLoop=1;jettySize=auto;html=1;" edge="1" source="adwvZwYp6TvHB-TOPoHW-49" target="adwvZwYp6TvHB-TOPoHW-51" parent="1">
          <mxGeometry relative="1" as="geometry" />
        </mxCell>
        <mxCell id="adwvZwYp6TvHB-TOPoHW-49" value="Obter a idade da pessoa" style="shape=parallelogram;html=1;strokeWidth=2;perimeter=parallelogramPerimeter;whiteSpace=wrap;rounded=1;arcSize=12;size=0.23;fillColor=#ffe6cc;strokeColor=#d79b00;" vertex="1" parent="1">
          <mxGeometry x="1250" y="180" width="100" height="60" as="geometry" />
        </mxCell>
        <mxCell id="adwvZwYp6TvHB-TOPoHW-66" value="" style="edgeStyle=orthogonalEdgeStyle;rounded=0;orthogonalLoop=1;jettySize=auto;html=1;" edge="1" parent="1" source="adwvZwYp6TvHB-TOPoHW-51" target="adwvZwYp6TvHB-TOPoHW-62">
          <mxGeometry relative="1" as="geometry" />
        </mxCell>
        <mxCell id="adwvZwYp6TvHB-TOPoHW-51" value="temperatura&amp;nbsp;&lt;div&gt;&amp;lt;=0?&lt;/div&gt;" style="strokeWidth=2;html=1;shape=mxgraph.flowchart.decision;whiteSpace=wrap;fillColor=#e1d5e7;strokeColor=#9673a6;" vertex="1" parent="1">
          <mxGeometry x="1250" y="290" width="100" height="100" as="geometry" />
        </mxCell>
        <mxCell id="adwvZwYp6TvHB-TOPoHW-62" value="a temperatura&lt;div&gt;&amp;gt;=100?&lt;/div&gt;" style="rhombus;whiteSpace=wrap;html=1;fillColor=#e1d5e7;strokeColor=#9673a6;strokeWidth=2;" vertex="1" parent="1">
          <mxGeometry x="1440" y="300" width="80" height="80" as="geometry" />
        </mxCell>
        <mxCell id="adwvZwYp6TvHB-TOPoHW-64" value="não" style="text;html=1;align=center;verticalAlign=middle;resizable=0;points=[];autosize=1;strokeColor=none;fillColor=none;" vertex="1" parent="1">
          <mxGeometry x="1370" y="320" width="40" height="30" as="geometry" />
        </mxCell>
        <mxCell id="adwvZwYp6TvHB-TOPoHW-67" value="sim" style="text;html=1;align=center;verticalAlign=middle;resizable=0;points=[];autosize=1;strokeColor=none;fillColor=none;" vertex="1" parent="1">
          <mxGeometry x="1190" y="320" width="40" height="30" as="geometry" />
        </mxCell>
        <mxCell id="adwvZwYp6TvHB-TOPoHW-68" value="estado sólido" style="strokeWidth=2;html=1;shape=mxgraph.flowchart.display;whiteSpace=wrap;fillColor=#6a00ff;fontColor=#ffffff;strokeColor=#3700CC;" vertex="1" parent="1">
          <mxGeometry x="1120" y="400" width="100" height="60" as="geometry" />
        </mxCell>
        <mxCell id="adwvZwYp6TvHB-TOPoHW-69" style="edgeStyle=orthogonalEdgeStyle;rounded=0;orthogonalLoop=1;jettySize=auto;html=1;exitX=0;exitY=0.5;exitDx=0;exitDy=0;exitPerimeter=0;entryX=0.5;entryY=0;entryDx=0;entryDy=0;entryPerimeter=0;" edge="1" parent="1" source="adwvZwYp6TvHB-TOPoHW-51" target="adwvZwYp6TvHB-TOPoHW-68">
          <mxGeometry relative="1" as="geometry" />
        </mxCell>
        <mxCell id="adwvZwYp6TvHB-TOPoHW-71" value="estado gasoso" style="strokeWidth=2;html=1;shape=mxgraph.flowchart.display;whiteSpace=wrap;fillColor=#6a00ff;fontColor=#ffffff;strokeColor=#3700CC;" vertex="1" parent="1">
          <mxGeometry x="1554" y="460" width="100" height="60" as="geometry" />
        </mxCell>
        <mxCell id="adwvZwYp6TvHB-TOPoHW-72" value="estado liquido" style="strokeWidth=2;html=1;shape=mxgraph.flowchart.display;whiteSpace=wrap;fillColor=#6a00ff;fontColor=#ffffff;strokeColor=#3700CC;" vertex="1" parent="1">
          <mxGeometry x="1350" y="480" width="100" height="60" as="geometry" />
        </mxCell>
        <mxCell id="adwvZwYp6TvHB-TOPoHW-73" style="edgeStyle=orthogonalEdgeStyle;rounded=0;orthogonalLoop=1;jettySize=auto;html=1;exitX=0.5;exitY=1;exitDx=0;exitDy=0;entryX=0.5;entryY=0;entryDx=0;entryDy=0;entryPerimeter=0;" edge="1" parent="1" source="adwvZwYp6TvHB-TOPoHW-62" target="adwvZwYp6TvHB-TOPoHW-72">
          <mxGeometry relative="1" as="geometry" />
        </mxCell>
        <mxCell id="adwvZwYp6TvHB-TOPoHW-74" value="não" style="text;html=1;align=center;verticalAlign=middle;resizable=0;points=[];autosize=1;strokeColor=none;fillColor=none;" vertex="1" parent="1">
          <mxGeometry x="1415" y="410" width="40" height="30" as="geometry" />
        </mxCell>
        <mxCell id="adwvZwYp6TvHB-TOPoHW-75" style="edgeStyle=orthogonalEdgeStyle;rounded=0;orthogonalLoop=1;jettySize=auto;html=1;exitX=1;exitY=0.5;exitDx=0;exitDy=0;entryX=0.584;entryY=-0.013;entryDx=0;entryDy=0;entryPerimeter=0;" edge="1" parent="1" source="adwvZwYp6TvHB-TOPoHW-62" target="adwvZwYp6TvHB-TOPoHW-71">
          <mxGeometry relative="1" as="geometry" />
        </mxCell>
        <mxCell id="adwvZwYp6TvHB-TOPoHW-76" value="sim" style="text;html=1;align=center;verticalAlign=middle;resizable=0;points=[];autosize=1;strokeColor=none;fillColor=none;" vertex="1" parent="1">
          <mxGeometry x="1550" y="318" width="40" height="30" as="geometry" />
        </mxCell>
        <mxCell id="adwvZwYp6TvHB-TOPoHW-79" value="" style="edgeStyle=orthogonalEdgeStyle;rounded=0;orthogonalLoop=1;jettySize=auto;html=1;" edge="1" parent="1" source="adwvZwYp6TvHB-TOPoHW-77" target="adwvZwYp6TvHB-TOPoHW-78">
          <mxGeometry relative="1" as="geometry" />
        </mxCell>
        <mxCell id="adwvZwYp6TvHB-TOPoHW-77" value="inicio" style="strokeWidth=2;html=1;shape=mxgraph.flowchart.start_2;whiteSpace=wrap;fillColor=#f5f5f5;fontColor=#333333;strokeColor=#666666;" vertex="1" parent="1">
          <mxGeometry x="1922" y="80" width="100" height="100" as="geometry" />
        </mxCell>
        <mxCell id="adwvZwYp6TvHB-TOPoHW-78" value="definir o numero&lt;div&gt;inicial&lt;/div&gt;" style="strokeWidth=2;html=1;shape=mxgraph.flowchart.display;whiteSpace=wrap;fillColor=#dae8fc;strokeColor=#6c8ebf;" vertex="1" parent="1">
          <mxGeometry x="1910" y="235" width="100" height="60" as="geometry" />
        </mxCell>
        <mxCell id="adwvZwYp6TvHB-TOPoHW-97" style="edgeStyle=orthogonalEdgeStyle;rounded=0;orthogonalLoop=1;jettySize=auto;html=1;exitX=0.5;exitY=1;exitDx=0;exitDy=0;exitPerimeter=0;" edge="1" parent="1" source="adwvZwYp6TvHB-TOPoHW-82" target="adwvZwYp6TvHB-TOPoHW-84">
          <mxGeometry relative="1" as="geometry" />
        </mxCell>
        <mxCell id="adwvZwYp6TvHB-TOPoHW-82" value="o numero é &amp;lt;que 20" style="strokeWidth=2;html=1;shape=mxgraph.flowchart.decision;whiteSpace=wrap;fillColor=#f5f5f5;fontColor=#333333;strokeColor=#666666;" vertex="1" parent="1">
          <mxGeometry x="1870" y="330" width="180" height="80" as="geometry" />
        </mxCell>
        <mxCell id="adwvZwYp6TvHB-TOPoHW-90" value="" style="edgeStyle=orthogonalEdgeStyle;rounded=0;orthogonalLoop=1;jettySize=auto;html=1;" edge="1" parent="1" source="adwvZwYp6TvHB-TOPoHW-84" target="adwvZwYp6TvHB-TOPoHW-86">
          <mxGeometry relative="1" as="geometry" />
        </mxCell>
        <mxCell id="adwvZwYp6TvHB-TOPoHW-84" value="dizer o numero atual" style="shape=parallelogram;html=1;strokeWidth=2;perimeter=parallelogramPerimeter;whiteSpace=wrap;rounded=1;arcSize=12;size=0.23;fillColor=#dae8fc;strokeColor=#6c8ebf;" vertex="1" parent="1">
          <mxGeometry x="1910" y="450" width="100" height="60" as="geometry" />
        </mxCell>
        <mxCell id="adwvZwYp6TvHB-TOPoHW-91" style="edgeStyle=orthogonalEdgeStyle;rounded=0;orthogonalLoop=1;jettySize=auto;html=1;exitX=0;exitY=0.5;exitDx=0;exitDy=0;entryX=0.047;entryY=0.495;entryDx=0;entryDy=0;entryPerimeter=0;" edge="1" parent="1" source="adwvZwYp6TvHB-TOPoHW-86" target="adwvZwYp6TvHB-TOPoHW-82">
          <mxGeometry relative="1" as="geometry">
            <mxPoint x="1862" y="370" as="targetPoint" />
          </mxGeometry>
        </mxCell>
        <mxCell id="adwvZwYp6TvHB-TOPoHW-86" value="incrementar ao numero +2" style="rounded=1;whiteSpace=wrap;html=1;absoluteArcSize=1;arcSize=14;strokeWidth=2;fillColor=#f5f5f5;fontColor=#333333;strokeColor=#666666;" vertex="1" parent="1">
          <mxGeometry x="1903" y="550" width="114" height="40" as="geometry" />
        </mxCell>
        <mxCell id="adwvZwYp6TvHB-TOPoHW-92" value="fim" style="strokeWidth=2;html=1;shape=mxgraph.flowchart.start_2;whiteSpace=wrap;fillColor=#dae8fc;strokeColor=#6c8ebf;" vertex="1" parent="1">
          <mxGeometry x="1910" y="630" width="100" height="100" as="geometry" />
        </mxCell>
        <mxCell id="adwvZwYp6TvHB-TOPoHW-95" style="edgeStyle=orthogonalEdgeStyle;rounded=0;orthogonalLoop=1;jettySize=auto;html=1;exitX=1;exitY=0.5;exitDx=0;exitDy=0;exitPerimeter=0;entryX=1;entryY=0.5;entryDx=0;entryDy=0;entryPerimeter=0;" edge="1" parent="1" source="adwvZwYp6TvHB-TOPoHW-82" target="adwvZwYp6TvHB-TOPoHW-92">
          <mxGeometry relative="1" as="geometry" />
        </mxCell>
        <mxCell id="adwvZwYp6TvHB-TOPoHW-96" value="não" style="edgeLabel;html=1;align=center;verticalAlign=middle;resizable=0;points=[];" vertex="1" connectable="0" parent="adwvZwYp6TvHB-TOPoHW-95">
          <mxGeometry x="-0.9262" relative="1" as="geometry">
            <mxPoint as="offset" />
          </mxGeometry>
        </mxCell>
        <mxCell id="adwvZwYp6TvHB-TOPoHW-98" style="edgeStyle=orthogonalEdgeStyle;rounded=0;orthogonalLoop=1;jettySize=auto;html=1;exitX=0.5;exitY=1;exitDx=0;exitDy=0;exitPerimeter=0;entryX=0.5;entryY=0;entryDx=0;entryDy=0;entryPerimeter=0;" edge="1" parent="1" source="adwvZwYp6TvHB-TOPoHW-78" target="adwvZwYp6TvHB-TOPoHW-82">
          <mxGeometry relative="1" as="geometry" />
        </mxCell>
        <mxCell id="adwvZwYp6TvHB-TOPoHW-100" value="sim" style="text;html=1;align=center;verticalAlign=middle;resizable=0;points=[];autosize=1;strokeColor=none;fillColor=none;" vertex="1" parent="1">
          <mxGeometry x="1962" y="408" width="40" height="30" as="geometry" />
        </mxCell>
      </root>
    </mxGraphModel>
  </diagram>
</mxfile>
